<svg xmlns="http://www.w3.org/2000/svg" width="48" height="48" id="ecommerce">
  <path d="M24 0C10.751 0 0 10.749 0 23.998 0 37.248 10.752 48 24 48s24-10.753 24-24.002C48 10.748 37.249 0 24 0zm0 1.008c12.704 0 22.992 10.285 22.992 22.99 0 12.705-10.288 22.994-22.992 22.994S1.008 36.702 1.008 23.998c0-12.705 10.288-22.99 22.992-22.99zM17 11v4.156c.303-.337.534-.57.906-1a.508.508 0 0 1 .25-.156h11.656v.031c.069.018.133.05.188.094.428.436.662.688 1 1.031V11H17zm5 1h4v1h-4v-1zm-3.5 3c-1.167 1.334-1.926 2.14-2.469 2.75h16.032c-.54-.602-1.32-1.422-2.626-2.75H18.5zm-3.281 3.75c-.193.329-.219.598-.219 1.125 0 .63.49 1.125 1.094 1.125.302 0 .553-.143.75-.344.196-.2.312-.466.312-.781 0-.262.238-.5.5-.5s.5.238.5.5c0 .315.147.58.344.781.197.2.448.344.75.344.604 0 1.094-.494 1.094-1.125a.514.514 0 0 1 .375-.469c.03-.013.061-.021.093-.031h.063a.49.49 0 0 1 .125.031.503.503 0 0 1 .125.094c.022.009.042.02.063.031.064.07.108.157.125.25.013.03.023.062.03.094 0 .63.46 1.125 1.063 1.125.604 0 1.094-.494 1.094-1.125 0-.262.238-.5.5-.5s.5.238.5.5c0 .63.49 1.125 1.094 1.125.603 0 1.062-.494 1.062-1.125 0-.262.238-.5.5-.5s.5.238.5.5c0 .63.49 1.125 1.094 1.125.604 0 1.094-.494 1.094-1.125 0-.262.238-.5.5-.5s.5.238.5.5c0 .63.459 1.125 1.062 1.125.604 0 1.094-.494 1.094-1.125v-.094c0-.519-.006-.734-.156-1.031H15.219zM24 21.063c-.379.53-.9.937-1.594.937-.68 0-1.182-.393-1.562-.906-.33.448-.786.789-1.344.875V32.5h9V21.969c-.558-.086-1.015-.427-1.344-.875-.38.513-.881.906-1.562.906-.695 0-1.215-.407-1.594-.938zm-6.344.03c-.058.08-.025.212-.093.282-.161.164-.357.302-.563.406V37h14V21.75c-.258-.162-.466-.4-.656-.656a2.36 2.36 0 0 1-.844.718V33.5h-11V21.875a2.143 2.143 0 0 1-.719-.5c-.07-.073-.065-.2-.125-.281zM23.844 34H24c.524 0 1 .476 1 1s-.476 1-1 1-1-.476-1-1a1.034 1.034 0 0 1 .844-1z" color="#000" font-family="sans-serif" font-weight="400" overflow="visible" style="line-height:normal;text-indent:0;text-align:start;text-decoration-line:none;text-transform:none;block-progression:tb"></path>
</svg>
