<svg xmlns="http://www.w3.org/2000/svg" fill-rule="evenodd" stroke-linejoin="round" stroke-miterlimit="2" clip-rule="evenodd" viewBox="0 0 48 48" id="js-file">
  <path d="M45,32c-0,-1.656 -1.344,-3 -3,-3c-0,0 -22,0 -22,0c-1.656,0 -3,1.344 -3,3c0,0 0,10 0,10c0,1.656 1.344,3 3,3l22,0c1.656,0 3,-1.344 3,-3l-0,-10Zm-8,0l-4,0c-0.552,0 -1,0.448 -1,1l0,4c0,0.552 0.448,1 1,1l3,0c-0,-0 0,2 0,2c0,0 -3,0 -3,0c-0.552,-0 -1,0.448 -1,1c-0,0.552 0.448,1 1,1l4,0c0.552,0 1,-0.448 1,-1l0,-4c0,-0.552 -0.448,-1 -1,-1l-3,0c0,0 0,-2 0,-2c-0,0 3,0 3,0c0.552,0 1,-0.448 1,-1c0,-0.552 -0.448,-1 -1,-1Zm-12,2l3,0c0,-0 0,6 0,6c0,0 -2,0 -2,0c0,0 0,-1 0,-1c-0,-0.552 -0.448,-1 -1,-1c-0.552,0 -1,0.448 -1,1l0,2c0,0.552 0.448,1 1,1l4,0c0.552,0 1,-0.448 1,-1l0,-8c0,-0.552 -0.448,-1 -1,-1l-4,0c-0.552,0 -1,0.448 -1,1c0,0.552 0.448,1 1,1Zm-20,-20l6,0c1.656,0 3,-1.344 3,-3l0,-6l14,0c0.552,0 1,0.448 1,1c0,0 0,21 0,21c0,0.552 0.448,1 1,1c0.552,-0 1,-0.448 1,-1l0,-21c0,-1.656 -1.344,-3 -3,-3c-0,0 -15,0 -15,0c-0.265,0 -0.52,0.105 -0.707,0.293l-9,9c-0.188,0.187 -0.293,0.442 -0.293,0.707l0,23c0,1.656 1.344,3 3,3l9,0c0.552,0 1,-0.448 1,-1c0,-0.552 -0.448,-1 -1,-1l-9,0c-0.552,0 -1,-0.448 -1,-1l0,-22Zm3,19l7,0c0.552,0 1,-0.448 1,-1c0,-0.552 -0.448,-1 -1,-1l-7,0c-0.552,0 -1,0.448 -1,1c0,0.552 0.448,1 1,1Zm0,-4l7,0c0.552,0 1,-0.448 1,-1c0,-0.552 -0.448,-1 -1,-1l-7,0c-0.552,0 -1,0.448 -1,1c0,0.552 0.448,1 1,1Zm0,-4l18,0c0.552,0 1,-0.448 1,-1c0,-0.552 -0.448,-1 -1,-1l-18,0c-0.552,0 -1,0.448 -1,1c0,0.552 0.448,1 1,1Zm0,-4l2,0c0.552,0 1,-0.448 1,-1c0,-0.552 -0.448,-1 -1,-1l-2,0c-0.552,0 -1,0.448 -1,1c0,0.552 0.448,1 1,1Zm5,0l13,0c0.552,0 1,-0.448 1,-1c0,-0.552 -0.448,-1 -1,-1l-13,0c-0.552,0 -1,0.448 -1,1c0,0.552 0.448,1 1,1Zm2,-4l11,0c0.552,0 1,-0.448 1,-1c0,-0.552 -0.448,-1 -1,-1l-11,0c-0.552,0 -1,0.448 -1,1c0,0.552 0.448,1 1,1Zm2,-4l9,0c0.552,0 1,-0.448 1,-1c0,-0.552 -0.448,-1 -1,-1l-9,0c-0.552,0 -1,0.448 -1,1c0,0.552 0.448,1 1,1Zm0,-4l9,0c0.552,0 1,-0.448 1,-1c0,-0.552 -0.448,-1 -1,-1l-9,0c-0.552,0 -1,0.448 -1,1c0,0.552 0.448,1 1,1Z"></path>
</svg>
