<svg xmlns="http://www.w3.org/2000/svg" width="26" height="26" id="setting">
  <g transform="translate(0 -1026.362)">
    <circle cx="657.054" cy="437.094" r="15.268" fill="#9257a2" fill-rule="evenodd" transform="translate(-546.456 667.193)scale(.85146)"></circle>
    <path fill="#6c4676" d="M10.813 25.813a13 13 0 0 0 1.267.154A13 13 0 0 0 13 26a13 13 0 0 0 1.297-.064 13 13 0 0 0 1.285-.196 13 13 0 0 0 1.26-.32 13 13 0 0 0 1.22-.445 13 13 0 0 0 1.17-.567 13 13 0 0 0 1.108-.68 13 13 0 0 0 1.035-.785 13 13 0 0 0 .951-.886 13 13 0 0 0 .858-.977 13 13 0 0 0 .755-1.057 13 13 0 0 0 .647-1.127 13 13 0 0 0 .531-1.185 13 13 0 0 0 .408-1.234 13 13 0 0 0 .286-1.268 13 13 0 0 0 .156-1.29A13 13 0 0 0 26 13a13 13 0 0 0-.064-1.297 13 13 0 0 0-.137-.904L21 6H5v14l5.813 5.813z" color="#000" font-family="sans-serif" font-weight="400" style="line-height:normal;text-indent:0;text-align:start;text-decoration-line:none;text-decoration-style:solid;text-decoration-color:#000;text-transform:none;block-progression:tb;isolation:auto;mix-blend-mode:normal" transform="translate(0 1026.362)"></path>
    <path fill="#fff" d="M0 1v14h16V1H0Zm1 1h8a.5.5 0 0 0 0 .008v1H1V2Zm9 0h1a.5.5 0 0 0 0 .008v1h-1v-1A.5.5 0 0 0 10 2Zm2 0h1a.5.5 0 0 0 0 .008v1h-1v-1A.5.5 0 0 0 12 2Zm2 0h1v1.008h-1v-1A.5.5 0 0 0 14 2ZM1 4.008h14V14H1V4.008Zm6.453.994a.5.5 0 0 0-.488.396l-.08.38a3.408 3.408 0 0 0-.38.148l-.333-.21a.5.5 0 0 0-.62.07l-.773.773a.5.5 0 0 0-.068.62l.217.342a3.415 3.415 0 0 0-.15.356l-.4.098a.5.5 0 0 0-.384.486v1.076a.5.5 0 0 0 .385.486l.398.094c.044.123.094.243.15.358l-.216.34a.5.5 0 0 0 .064.619l.758.773a.5.5 0 0 0 .625.072l.346-.22c.125.059.25.111.379.154l.082.385a.5.5 0 0 0 .488.398H8.53a.5.5 0 0 0 .489-.394l.08-.37c.135-.044.268-.096.398-.158l.332.207a.5.5 0 0 0 .615-.066l.756-.74a.5.5 0 0 0 .078-.618l-.209-.345c.059-.122.111-.245.155-.371l.386-.082a.5.5 0 0 0 .397-.489V8.46a.5.5 0 0 0-.395-.487l-.37-.08a3.43 3.43 0 0 0-.157-.383l.207-.33a.5.5 0 0 0-.07-.62l-.774-.773a.5.5 0 0 0-.619-.07l-.328.205a3.367 3.367 0 0 0-.385-.156l-.08-.37a.5.5 0 0 0-.488-.394H7.453zm.406 1h.284l.048.227a.5.5 0 0 0 .375.382c.267.063.513.16.727.291a.5.5 0 0 0 .527 0l.201-.125.211.211-.127.201a.5.5 0 0 0 0 .528c.132.213.229.46.291.726a.5.5 0 0 0 .381.373l.229.05v.3l-.242.05a.5.5 0 0 0-.383.37 2.443 2.443 0 0 1-.291.713.5.5 0 0 0-.004.525l.13.215-.19.188-.206-.13a.5.5 0 0 0-.527 0 2.453 2.453 0 0 1-.74.292.5.5 0 0 0-.377.38l-.049.229h-.268l-.05-.242a.5.5 0 0 0-.372-.385 2.455 2.455 0 0 1-.726-.29.5.5 0 0 0-.535 0l-.213.134-.195-.2.14-.22a.5.5 0 0 0 .006-.53 2.445 2.445 0 0 1-.295-.697.5.5 0 0 0-.371-.369l-.254-.062v-.285l.254-.061a.5.5 0 0 0 .371-.37c.06-.244.162-.478.295-.696a.5.5 0 0 0-.006-.528l-.137-.217.208-.209.2.125a.5.5 0 0 0 .53 0c.193-.12.443-.204.729-.273a.5.5 0 0 0 .37-.383l.051-.238ZM8 7.498c-.823 0-1.5.678-1.5 1.5 0 .823.677 1.5 1.5 1.5s1.5-.677 1.5-1.5c0-.822-.677-1.5-1.5-1.5zm0 1c.282 0 .5.218.5.5 0 .282-.218.5-.5.5a.493.493 0 0 1-.5-.5c0-.282.218-.5.5-.5z" color="#000" font-family="sans-serif" font-weight="400" overflow="visible" style="line-height:normal;text-indent:0;text-align:start;text-decoration-line:none;text-decoration-style:solid;text-decoration-color:#000;text-transform:none;block-progression:tb;isolation:auto;mix-blend-mode:normal" transform="translate(5 1031.362)"></path>
  </g>
</svg>
